<svg xmlns="http://www.w3.org/2000/svg" aria-hidden="true" style="position:absolute;width:0;height:0;overflow:hidden">
  <defs>
    <symbol id="icon-css" viewBox="0 0 32 32">
      <path fill="#0277bd" d="M27.333 3.333H4.666l2 22.667 9.333 2.667L25.332 26l2-22.667z" style="fill:var(--color1, #0277bd)"/>
      <path fill="#039be5" d="M16 5.333V26.6l7.467-2.133 1.667-19.133z" style="fill:var(--color2, #039be5)"/>
      <path fill="#fff" d="M22.067 8.667H16v2.667h3.267l-.2 2.667H16v2.667h2.933l-.2 3-2.733.933v2.8l5.267-1.733.467-7.667z" style="fill:var(--color3, #fff)"/>
      <path fill="#eee" d="M16 8.667v2.667h-5.933l-.2-2.667H16zM12.933 14l.133 2.667h2.933V14h-3.067zm.267 4h-2.667l.2 3.667L16 23.4v-2.8l-2.733-.933L13.2 18z" style="fill:var(--color4, #eee)"/>
    </symbol>
    <symbol id="icon-git" viewBox="0 0 32 32">
      <path fill="#f4511e" d="M28.133 14.733 17.266 3.866c-.333-.333-.8-.533-1.267-.533s-.933.2-1.267.533l-2.333 2.333 2.733 2.733c.267-.133.533-.2.867-.2 1.133 0 2 .867 2 2 0 .333-.067.6-.2.867l2.667 2.667c.267-.133.533-.2.867-.2 1.133 0 2 .867 2 2s-.867 2-2 2-2-.867-2-2c0-.333.067-.6.2-.867l-2.667-2.667c-.067 0-.133.067-.2.067v6.933c.8.267 1.333 1 1.333 1.867 0 1.133-.867 2-2 2s-2-.867-2-2c0-.867.533-1.6 1.333-1.867v-7c-.8-.267-1.333-1-1.333-1.867 0-.333.067-.6.2-.867l-2.733-2.733-7.6 7.667c-.333.333-.533.8-.533 1.267s.2.933.533 1.267l10.867 10.867c.333.333.8.533 1.267.533s.933-.2 1.267-.533l10.867-10.867c.333-.333.533-.8.533-1.267s-.2-.933-.533-1.267z" style="fill:var(--color5, #f4511e)"/>
    </symbol>
    <symbol id="icon-github" viewBox="0 0 32 32">
      <path d="M16 2.667C8.636 2.667 2.667 8.636 2.667 16c0 5.925 3.867 10.941 9.213 12.677h8.24c5.346-1.737 9.213-6.753 9.213-12.677 0-7.364-5.969-13.333-13.333-13.333z"/>
      <path d="M20.007 27.997 20 24.132c0-.626-.147-1.237-.428-1.791 3.761-.755 5.591-2.979 5.591-6.785 0-1.503-.443-2.831-1.317-3.947.067-.211.116-.43.147-.654.125-.913-.015-1.509-.129-1.989l-.018-.077c-.124-.531-.273-.909-.279-.925l-.148-.376-.403-.043s-.133-.014-.334-.014c-.279 0-.693.028-1.085.161l-.131.044c-.493.166-.959.323-1.611.713-.191.114-.399.244-.623.389a13.126 13.126 0 0 0-3.165-.377h-.07.004c-1.148 0-2.243.128-3.259.381a20.085 20.085 0 0 0-.628-.393c-.652-.389-1.118-.546-1.611-.713l-.131-.044a3.468 3.468 0 0 0-1.084-.161 3.53 3.53 0 0 0-.334.014l-.201.021-.2.021-.075.187-.075.189a7.226 7.226 0 0 0-.279.927l-.018.077c-.113.479-.254 1.077-.129 1.989.032.231.083.457.153.674-.857 1.111-1.291 2.431-1.291 3.927 0 3.797 1.832 6.019 5.598 6.78a3.902 3.902 0 0 0-.295.788l-.006.028a2.099 2.099 0 0 1-.346.09l-.013.002a3.198 3.198 0 0 1-.487.036h-.006c-.457 0-.817-.089-.957-.173-.209-.124-.581-.485-.943-1.012-.309-.45-.79-1.039-1.328-1.285-.465-.213-.958-.335-1.353-.335-.092 0-.177.007-.251.019a1.085 1.085 0 0 0-.789.52.862.862 0 0 0-.056.767l-.002-.006c.146.365.567.657.895.837.161.089.51.413.713.739.153.245.223.42.321.661.058.143.122.299.209.488.313.681 1.291 1.283 1.402 1.349.537.322 1.441.425 2.105.455l.083.002c.16 0 .38-.015.669-.047v1.742c.001.353-.358.433-.833.425l.365.123c1.329.494 2.864.782 4.465.785H16c1.57 0 3.07-.285 4.469-.784l.469-.175c-.474-.016-.927-.093-.931-.377z" opacity=".05"/>
      <path d="M20.521 28.531c-.271.031-.854-.073-.854-.53v-3.869c0-.759-.233-1.464-.632-2.047l.008.012c3.943-.638 5.786-2.729 5.786-6.541 0-1.491-.457-2.796-1.359-3.881.091-.243.155-.5.192-.765.117-.851-.011-1.391-.123-1.867l-.018-.077a6.738 6.738 0 0 0-.28-.926l.016.047-.074-.188-.202-.021s-.119-.013-.299-.013c-.254 0-.629.025-.977.143l-.131.044c-.476.161-.926.312-1.547.683-.221.132-.468.287-.734.463a13.032 13.032 0 0 0-3.291-.403c-1.175 0-2.29.137-3.319.407a15.335 15.335 0 0 0-.647-.414l-.092-.052c-.621-.371-1.071-.523-1.547-.683l-.131-.044a3.145 3.145 0 0 0-.977-.143h-.018a3.18 3.18 0 0 0-.294.014l.012-.001-.201.021-.075.189a6.909 6.909 0 0 0-.265.879l-.018.077c-.113.477-.24 1.016-.123 1.867.037.271.104.534.199.783-.885 1.08-1.333 2.378-1.333 3.863 0 3.802 1.844 5.892 5.791 6.537a3.59 3.59 0 0 0-.538 1.286l-.004.023c-.17.072-.37.132-.577.168l-.017.002c-.175.027-.358.04-.543.04-.46 0-.902-.086-1.127-.219-.293-.174-.705-.609-1.048-1.11-.233-.34-.698-.945-1.192-1.17-.423-.193-.865-.305-1.214-.305-.073 0-.14.005-.199.015a.757.757 0 0 0-.552.356.535.535 0 0 0-.038.476l-.001-.004c.119.299.561.567.746.668.223.123.613.496.836.856.167.269.247.465.347.711.057.139.119.291.203.475.221.479.902.981 1.27 1.202.503.301 1.436.385 1.948.408l.074.001c.199 0 .533-.03.997-.09v2.118c0 .519-.661.54-.823.54-.021 0 .335.123.335.123 1.24.423 2.669.668 4.154.669h.001a13.3 13.3 0 0 0 4.154-.669s.387-.136.367-.133z" opacity=".07"/>
      <path d="M24.496 15.556c0-1.54-.521-2.817-1.411-3.819.097-.217.197-.507.247-.873.115-.833-.021-1.333-.135-1.823s-.25-.833-.25-.833-.615-.063-1.135.115-.969.313-1.615.698c-.302.18-.606.377-.847.537A12.588 12.588 0 0 0 16 9.126c-1.201 0-2.342.147-3.378.435a16.576 16.576 0 0 0-.759-.488l-.092-.052c-.646-.385-1.094-.521-1.615-.698s-1.135-.115-1.135-.115-.135.344-.25.833-.25.989-.135 1.823c.051.375.155.671.255.889-.873.995-1.385 2.265-1.385 3.803 0 3.989 2.155 5.809 6.081 6.29a3.3 3.3 0 0 0-.866 1.776l-.002.018c-.258.113-.555.22-.841.263-.736.111-1.514 0-1.889-.222s-.819-.722-1.153-1.209c-.281-.411-.687-.887-1.055-1.055-.486-.222-.959-.305-1.222-.264s-.389.236-.333.375c.055.139.319.347.597.5s.709.569.959.972c.279.449.333.709.569 1.222.166.361.734.813 1.139 1.055.347.209 1.041.327 1.792.361.259.012.872-.064 1.389-.137v2.5c0 .426-.39.75-.794.675 1.297.436 2.681.657 4.126.657s2.829-.221 4.127-.656a.684.684 0 0 1-.793-.676v-3.869a3.3 3.3 0 0 0-.917-2.285l.001.001c3.897-.468 6.078-2.245 6.078-6.293zM7.493 21.818c-.103-.053-.158-.15-.123-.219s.147-.081.249-.029.158.15.123.219-.147.081-.249.029zm.808.503c-.054.059-.17.04-.259-.041s-.118-.195-.064-.254c.054-.059.17-.04.259.041s.118.195.064.254zm.502.834c-.068.048-.183.003-.257-.1s-.079-.227-.011-.275.183-.003.257.1c.073.103.079.227.011.275zm.722.627c-.046.075-.177.078-.291.008s-.171-.187-.125-.262c.046-.075.177-.078.291-.008s.171.187.125.262zm.683.614c-.142-.017-.247-.106-.235-.198s.136-.152.277-.135c.142.017.247.106.235.198s-.135.152-.277.135zm1.101.159c-.151-.009-.269-.095-.263-.193s.133-.17.285-.161c.151.009.269.095.263.193s-.133.17-.285.161zm1.038-.104c-.161 0-.292-.084-.292-.187s.131-.187.292-.187.292.084.292.187-.131.187-.292.187z" style="fill:#1b1b1b;"/>
    </symbol>
    <symbol id="icon-html5" viewBox="0 0 32 32">
      <path fill="#e65100" d="M27.333 3.333H4.666l2 22.667 9.333 2.667L25.332 26l2-22.667z" style="fill:var(--color7, #e65100)"/>
      <path fill="#ff6d00" d="M16 5.333V26.6l7.467-2.133 1.667-19.133z" style="fill:var(--color8, #ff6d00)"/>
      <path fill="#fff" d="M16 16.667V14h5.733l-.467 7.667-5.267 1.733v-2.8l2.733-.933.2-3h-2.933zm5.933-5.334.2-2.667H16v2.667h5.933z" style="fill:var(--color3, #fff)"/>
      <path fill="#eee" d="M16 20.6v2.8l-5.267-1.733L10.466 18h2.667l.133 1.667 2.733.933zm-3.267-9.267H16V8.666H9.933l.467 8H16v-2.667h-3.067l-.2-2.667z" style="fill:var(--color4, #eee)"/>
    </symbol>
    <symbol id="icon-icons" viewBox="0 0 32 32">
      <path fill="#039be5" d="M16 3.333C9.004 3.333 3.333 9.004 3.333 16S9.004 28.667 16 28.667c6.996 0 12.667-5.671 12.667-12.667S22.996 3.333 16 3.333z" style="fill:var(--color2, #039be5)"/>
      <path fill="#fff" d="M17.715 19.357h3.278l.515-3.33h-3.793v-1.82c0-1.383.452-2.61 1.746-2.61h2.079V8.691c-.365-.049-1.138-.157-2.598-.157-3.049 0-4.836 1.61-4.836 5.278v2.215h-3.134v3.33h3.134v9.153c.621.093 1.249.157 1.895.157.583 0 1.153-.053 1.715-.129v-9.18z" style="fill:var(--color3, #fff)"/>
    </symbol>
    <symbol id="icon-instagram" viewBox="0 0 32 32">
      <path d="M31.968 9.408c-.074-1.701-.349-2.869-.742-3.882a7.839 7.839 0 0 0-1.85-2.837l-.001-.001A7.906 7.906 0 0 0 26.597.861l-.054-.018C25.524.449 24.362.176 22.661.101 20.949.019 20.405 0 16.059 0c-4.344 0-4.888.019-6.595.094-1.699.074-2.869.349-3.88.742a7.847 7.847 0 0 0-2.839 1.85l-.001.001A7.9 7.9 0 0 0 .919 5.465l-.018.054C.506 6.538.232 7.7.157 9.401c-.082 1.712-.101 2.256-.101 6.602 0 4.344.019 4.888.094 6.595.075 1.701.35 2.869.744 3.882a7.915 7.915 0 0 0 1.849 2.837l.001.001a7.887 7.887 0 0 0 2.778 1.825l.054.018c1.019.395 2.182.67 3.882.744 1.707.075 2.251.094 6.595.094 4.346 0 4.89-.019 6.595-.094 1.701-.074 2.869-.349 3.882-.742a8.237 8.237 0 0 0 4.664-4.628l.019-.055c.394-1.019.669-2.182.744-3.882.075-1.707.093-2.251.093-6.595s-.006-4.888-.08-6.595zm-2.88 13.066c-.07 1.563-.333 2.406-.55 2.97a5.341 5.341 0 0 1-3.004 3.024l-.036.012c-.56.219-1.411.482-2.968.55-1.688.075-2.194.094-6.464.094-4.269 0-4.782-.019-6.464-.094-1.563-.069-2.406-.331-2.97-.55a4.953 4.953 0 0 1-1.836-1.192l-.001-.001a4.978 4.978 0 0 1-1.184-1.803L3.6 25.45c-.218-.563-.48-1.413-.549-2.97-.075-1.688-.094-2.195-.094-6.464 0-4.27.019-4.784.094-6.464.069-1.563.331-2.406.549-2.97a4.897 4.897 0 0 1 1.198-1.837l.002-.002a4.972 4.972 0 0 1 1.806-1.182l.034-.011c.56-.219 1.411-.48 2.968-.55 1.688-.074 2.195-.093 6.464-.093 4.275 0 4.782.019 6.464.093 1.563.069 2.406.331 2.97.55a4.91 4.91 0 0 1 1.837 1.194c.531.52.938 1.144 1.195 1.84.218.56.48 1.411.549 2.968.075 1.688.094 2.194.094 6.464 0 4.269-.019 4.768-.094 6.458z"/>
      <path d="M16.059 7.782a8.223 8.223 0 0 0-8.219 8.221v.002a8.222 8.222 0 1 0 16.444 0 8.222 8.222 0 0 0-8.222-8.222h-.002zm0 13.552a5.333 5.333 0 0 1 .001-10.666h.001a5.334 5.334 0 1 1 0 10.668zM26.525 7.458a1.92 1.92 0 0 1-3.84 0 1.92 1.92 0 0 1 3.84 0z"/>
    </symbol>
    <symbol id="icon-js" viewBox="0 0 32 32">
      <path fill="#ffd600" d="M4 28V4h24v24H4z" style="fill:var(--color9, #ffd600)"/>
      <path fill="#000001" d="M19.692 21.965c.461.749.963 1.467 2.025 1.467.892 0 1.36-.443 1.36-1.057 0-.734-.484-.995-1.465-1.422l-.538-.229c-1.553-.659-2.585-1.484-2.585-3.227 0-1.607 1.23-2.829 3.152-2.829 1.369 0 2.352.474 3.061 1.715l-1.676 1.071c-.369-.659-.767-.918-1.385-.918-.631 0-1.03.398-1.03.918 0 .643.4.903 1.323 1.301l.538.229c1.83.779 2.862 1.575 2.862 3.365 0 1.928-1.523 2.985-3.567 2.985-1.999 0-3.135-1.003-3.767-2.245l1.692-1.123zm-7.724.054c.337.604.85 1.069 1.587 1.069.705 0 1.111-.279 1.111-1.362v-7.059h2.222v7.401c0 2.245-1.302 3.266-3.203 3.266-1.718 0-2.958-1.164-3.463-2.245l1.746-1.069z" style="fill:var(--color10, #000001)"/>
    </symbol>
    <symbol id="icon-linkedin" viewBox="0 0 32 32">
      <path d="M31.992 32H32V20.262c0-5.741-1.235-10.163-7.947-10.163-3.227 0-5.392 1.77-6.277 3.45h-.093v-2.914h-6.365v21.363h6.627V21.42c0-2.786.528-5.48 3.978-5.48 3.398 0 3.45 3.179 3.45 5.658V32h6.619zM.528 10.635h6.635V32H.528V10.635zM3.843 0A3.843 3.843 0 0 0 0 3.843c0 2.12 1.722 3.878 3.843 3.878 2.12 0 3.842-1.757 3.842-3.878S5.965.002 3.844 0z"/>
    </symbol>
    <symbol id="icon-mail" viewBox="0 0 32 32">
      <path fill="none" stroke="#9da4bd" stroke-linecap="round" stroke-linejoin="round" stroke-width="1.333" d="M6.4 6.667h19.2C26.92 6.667 28 7.716 28 9v14c0 1.283-1.08 2.333-2.4 2.333H6.4C5.08 25.333 4 24.282 4 23V9c0-1.284 1.08-2.333 2.4-2.333z" style="stroke:var(--color11, #9da4bd)"/>
      <path fill="none" stroke="#9da4bd" stroke-linecap="round" stroke-linejoin="round" stroke-width="1.333" d="m26.667 9.333-10.667 8-10.667-8" style="stroke:var(--color11, #9da4bd)"/>
    </symbol>
    <symbol id="icon-node-js" viewBox="0 0 32 32">
      <path fill="#21a366" d="M16.005 30.279c-.383 0-.762-.1-1.097-.293l-3.493-2.069c-.522-.292-.267-.395-.095-.455.696-.243.837-.299 1.579-.721.078-.045.18-.029.26.019l2.684 1.593a.347.347 0 0 0 .326 0l-.002.001 10.465-6.041a.331.331 0 0 0 .16-.283V9.954a.334.334 0 0 0-.161-.286l-.001-.001-10.46-6.036a.32.32 0 0 0-.324.001l.002-.001L5.389 9.666a.333.333 0 0 0-.166.285v12.076c0 .115.063.225.163.28l2.866 1.655c1.556.778 2.507-.139 2.507-1.061V10.983c0-.17.133-.301.304-.301h1.325a.3.3 0 0 1 .301.301v11.924c0 2.075-1.131 3.267-3.099 3.267-.605 0-1.082 0-2.413-.655l-2.745-1.582a2.216 2.216 0 0 1-1.098-1.91V9.947a2.2 2.2 0 0 1 1.087-1.898l.01-.006L14.907 2a2.294 2.294 0 0 1 2.201 0l10.463 6.046a2.214 2.214 0 0 1 1.097 1.907v12.076a2.216 2.216 0 0 1-1.087 1.902l-.01.006-10.463 6.043a2.177 2.177 0 0 1-1.097.293h-.006z" style="fill:var(--color12, #21a366)"/>
      <path fill="#21a366" d="M19.237 21.958c-4.579 0-5.539-2.102-5.539-3.865 0-.167.135-.301.303-.301h1.352c.149 0 .275.109.299.256.204 1.377.812 2.072 3.581 2.072 2.205 0 3.143-.498 3.143-1.668 0-.673-.267-1.173-3.693-1.509-2.866-.283-4.637-.914-4.637-3.206 0-2.111 1.781-3.369 4.765-3.369 3.351 0 5.011 1.163 5.221 3.662a.304.304 0 0 1-.303.33H22.369a.3.3 0 0 1-.293-.234v-.002c-.327-1.449-1.119-1.912-3.269-1.912-2.407 0-2.687.838-2.687 1.467 0 .762.33.985 3.578 1.415 3.217.427 4.744 1.029 4.744 3.29 0 2.279-1.902 3.586-5.218 3.586z" style="fill:var(--color12, #21a366)"/>
    </symbol>
    <symbol id="icon-react" viewBox="0 0 32 32">
      <path fill="#98ccfd" d="M18.8 16c0 1.548-1.252 2.8-2.8 2.8s-2.8-1.252-2.8-2.8 1.252-2.8 2.8-2.8 2.8 1.252 2.8 2.8z" style="fill:var(--color13, #98ccfd)"/>
      <path fill="#4788c7" d="M16 19.2c-1.765 0-3.2-1.435-3.2-3.2s1.435-3.2 3.2-3.2 3.2 1.435 3.2 3.2-1.435 3.2-3.2 3.2zm0-5.6c-1.323 0-2.4 1.077-2.4 2.4s1.077 2.4 2.4 2.4 2.4-1.077 2.4-2.4-1.077-2.4-2.4-2.4z" style="fill:var(--color14, #4788c7)"/>
      <path fill="#98ccfd" d="M31.6 16c0-2.237-2.33-4.186-5.994-5.43.461-2.137.524-4.044.133-5.505-.326-1.218-.945-2.094-1.837-2.602a3.632 3.632 0 0 0-1.823-.462c-1.766 0-3.914 1.121-6.078 3.033C13.836 3.121 11.687 2 9.919 2a3.62 3.62 0 0 0-1.823.462c-.892.51-1.511 1.386-1.837 2.605-.391 1.461-.328 3.368.132 5.504-3.662 1.244-5.992 3.194-5.992 5.43s2.33 4.186 5.993 5.429c-.461 2.136-.524 4.043-.132 5.504.326 1.219.945 2.095 1.838 2.606.537.306 1.15.462 1.823.462h.001c1.766 0 3.915-1.121 6.078-3.034 2.163 1.911 4.312 3.031 6.078 3.032h.001c.674 0 1.286-.155 1.824-.462.891-.509 1.51-1.385 1.835-2.602.391-1.461.328-3.368-.132-5.504 3.663-1.243 5.994-3.193 5.994-5.43zM23.11 3.854c.507.29.872.837 1.083 1.626.321 1.197.258 2.807-.126 4.632a27.275 27.275 0 0 0-4.037-.739l-.129-.011a30.2 30.2 0 0 0-2.756-3.237l.004.004c1.918-1.67 3.678-2.526 4.93-2.526.392 0 .738.085 1.031.251zM20.627 18.63a34.508 34.508 0 0 1-1.677 2.606l.074-.11a35.53 35.53 0 0 1-6.187-.01l.135.01a33.961 33.961 0 0 1-2.897-4.918l-.09-.207c.94-1.97 1.935-3.65 3.06-5.232l-.072.106c.9-.083 1.947-.13 3.004-.13H16h-.001c1.052 0 2.062.046 3.025.13a33.787 33.787 0 0 1 2.899 4.918l.09.207a32.673 32.673 0 0 1-1.473 2.789l.087-.159zm2.219-.716c.328.829.605 1.642.833 2.428-.792.206-1.646.382-2.555.524.302-.466.598-.939.885-1.43.296-.506.572-1.014.838-1.522zM16 24.786a26.541 26.541 0 0 1-1.725-1.927l-.039-.049a36.38 36.38 0 0 0 1.761.044H16c.598 0 1.184-.017 1.762-.044a26.087 26.087 0 0 1-1.765 1.979l.003-.003zm-5.126-3.92a25.719 25.719 0 0 1-2.736-.565l.182.041c.228-.786.504-1.598.832-2.427.266.508.542 1.017.837 1.522.286.49.584.963.886 1.429zm-1.722-6.78a23.493 23.493 0 0 1-.783-2.235l-.049-.192a26.299 26.299 0 0 1 2.555-.524c-.217.321-.51.787-.792 1.26l-.093.169a36.938 36.938 0 0 0-.838 1.522zm6.849-6.872c.604.611 1.18 1.255 1.723 1.926l.038.049c-.578-.027-1.165-.044-1.762-.044s-1.184.017-1.762.044a26.27 26.27 0 0 1 1.766-1.978l-.002.002zm6.008 5.349a32.235 32.235 0 0 0-.969-1.566l.084.136c.91.142 1.763.318 2.555.524a26.263 26.263 0 0 1-.898 2.611l.065-.182a32.426 32.426 0 0 0-.931-1.695l.094.172zM7.806 5.481c.212-.791.577-1.339 1.084-1.63A2.062 2.062 0 0 1 9.92 3.6c1.254 0 3.014.858 4.933 2.529a30.097 30.097 0 0 0-2.697 3.153l-.057.08a28.993 28.993 0 0 0-4.369.797l.202-.045c-.384-1.826-.447-3.437-.126-4.633zM2 16c0-1.383 1.785-2.853 4.786-3.886A29.28 29.28 0 0 0 8.3 16.185l-.076-.186a27.706 27.706 0 0 0-1.383 3.674l-.055.211C3.784 18.851 2 17.382 2 15.998zm7.921 12.4c-.392 0-.739-.085-1.03-.25-.509-.29-.874-.838-1.085-1.63-.321-1.197-.258-2.807.126-4.632 1.277.334 2.674.587 4.166.75a30.131 30.131 0 0 0 2.759 3.239l-.004-.004c-1.918 1.67-3.679 2.527-4.932 2.527zm14.272-1.88c-.212.79-.576 1.337-1.083 1.626a2.06 2.06 0 0 1-1.031.251c-1.253 0-3.014-.857-4.931-2.526a30.208 30.208 0 0 0 2.696-3.153l.057-.08a29.248 29.248 0 0 0 4.369-.796l-.203.045c.385 1.825.448 3.435.127 4.632zm1.019-6.634a29.503 29.503 0 0 0-1.514-4.072l.077.186a27.722 27.722 0 0 0 1.383-3.675l.055-.212c3.002 1.033 4.788 2.503 4.788 3.886s-1.786 2.854-4.788 3.886z" style="fill:var(--color13, #98ccfd)"/>
      <path fill="#4788c7" d="M9.922 30.4a4.026 4.026 0 0 1-2.022-.514c-.99-.566-1.671-1.525-2.026-2.85-.378-1.41-.357-3.251.056-5.346C2.156 20.336 0 18.273 0 16s2.155-4.336 5.93-5.691c-.414-2.094-.434-3.936-.056-5.346.354-1.325 1.036-2.283 2.025-2.849 2.016-1.15 4.942-.314 8.102 2.39 3.159-2.702 6.083-3.538 8.1-2.389.988.564 1.67 1.522 2.025 2.846.378 1.41.357 3.253-.057 5.346C29.844 11.661 32 13.725 32 15.998s-2.156 4.337-5.931 5.692c.414 2.094.434 3.935.056 5.346-.354 1.325-1.035 2.282-2.023 2.846-2.018 1.15-4.945.313-8.102-2.388-2.221 1.902-4.317 2.904-6.078 2.904zm-.002-28c-.602 0-1.15.138-1.625.409-.797.456-1.351 1.25-1.648 2.361-.366 1.366-.318 3.204.137 5.317l.075.349-.338.115C2.884 12.185.799 14.025.799 16.001s2.085 3.816 5.721 5.05l.338.115-.075.349c-.455 2.113-.503 3.951-.137 5.317.297 1.111.851 1.906 1.65 2.362.476.27 1.022.407 1.625.407h.001c1.61 0 3.674-1.042 5.814-2.934l.265-.234.265.234c2.139 1.89 4.204 2.931 5.814 2.931.603 0 1.15-.138 1.627-.409.795-.454 1.35-1.248 1.646-2.358.366-1.366.318-3.203-.137-5.316l-.075-.349.338-.115c3.637-1.234 5.722-3.075 5.722-5.05s-2.086-3.817-5.722-5.05l-.338-.115.076-.349c.455-2.113.503-3.951.137-5.317-.298-1.111-.852-1.904-1.649-2.358a3.239 3.239 0 0 0-1.625-.409c-1.609 0-3.673 1.042-5.814 2.933l-.265.234-.265-.234C13.595 3.444 11.53 2.402 9.92 2.402zm.001 26.4c-.462 0-.875-.102-1.228-.303-.605-.346-1.034-.976-1.274-1.874-.326-1.222-.284-2.888.122-4.818l.086-.41.406.106c1.273.332 2.654.582 4.108.74l.174.019.105.14a29.949 29.949 0 0 0 2.722 3.196l-.004-.004.299.303-.321.28c-1.943 1.693-3.788 2.626-5.194 2.626zm-1.679-6.422c-.374 1.632-.386 3.022-.05 4.038.222.673.484 1.15.897 1.386 1.035.591 3.05-.19 5.178-1.957a30.572 30.572 0 0 1-2.33-2.75l-.057-.079a29.653 29.653 0 0 1-3.842-.68l.204.043zm13.837 6.42c-1.406 0-3.25-.932-5.193-2.624l-.321-.279.299-.303a29.636 29.636 0 0 0 2.659-3.111l.056-.08.104-.141.174-.019a28.659 28.659 0 0 0 4.31-.785l-.2.045.406-.106.086.41c.406 1.931.448 3.597.121 4.818-.241.897-.669 1.526-1.271 1.87a2.455 2.455 0 0 1-1.23.304zm-4.346-2.953c2.128 1.766 4.137 2.547 5.18 1.954.41-.234.671-.711.894-1.382.338-1.017.324-2.406-.05-4.038a27.58 27.58 0 0 1-3.501.625l-.139.013a30.72 30.72 0 0 1-2.396 2.84l.011-.012zM16 25.356l-.284-.288a26.703 26.703 0 0 1-1.751-1.957l-.039-.05-.56-.694.89.042c1.145.054 2.345.054 3.489 0l.889-.042-.558.693a27.119 27.119 0 0 1-1.793 2.009l.003-.003-.285.29zm-.882-2.113c.287.334.582.658.882.97.285-.298.573-.614.853-.936l.028-.033a33.998 33.998 0 0 1-1.808-.001l.045.001zM16 21.654c-1.027 0-2.057-.044-3.062-.131l-.186-.016-.107-.153a33.944 33.944 0 0 1-1.528-2.355l-.092-.168a31.66 31.66 0 0 1-1.31-2.448l-.093-.212L9.54 16l.082-.171a34.061 34.061 0 0 1 1.492-2.825l-.09.165a34.87 34.87 0 0 1 1.696-2.635l-.075.111.107-.152.186-.016a36.323 36.323 0 0 1 6.256.009l-.136-.01.186.016.107.153a33.875 33.875 0 0 1 1.529 2.357l.091.166c.414.688.882 1.56 1.312 2.453l.09.208.081.17-.081.171a34.676 34.676 0 0 1-3.095 5.291l.072-.107-.107.153-.186.016c-1.003.086-2.032.13-3.059.13zm-2.807-.912a35.565 35.565 0 0 0 5.739-.009l-.127.008c.441-.622.929-1.377 1.388-2.152l.089-.163a30.22 30.22 0 0 0 1.2-2.228l.088-.2a32.424 32.424 0 0 0-1.374-2.585l.086.157a33.916 33.916 0 0 0-1.552-2.426l.074.111a35.559 35.559 0 0 0-5.737.009l.127-.008c-.441.623-.93 1.378-1.39 2.153l-.089.162c-.371.615-.8 1.411-1.198 2.224l-.09.203a33.145 33.145 0 0 0 1.376 2.589l-.088-.161a35.346 35.346 0 0 0 1.555 2.432l-.078-.117zm7.109.657.486-.75c.298-.461.592-.93.876-1.414.195-.318.47-.811.734-1.31l.094-.196.405-.774.322.813c.324.818.609 1.648.846 2.465l.114.395-.398.103c-.673.185-1.55.371-2.442.512l-.152.02-.884.137zm2.481-2.519a28.382 28.382 0 0 1-.916 1.57l.076-.131c.422-.08.834-.167 1.232-.263-.12-.392-.251-.785-.392-1.177zm-11.086 2.519-.884-.138a26.1 26.1 0 0 1-2.778-.574l.186.042-.398-.103.114-.394c.298-1.028.586-1.847.91-2.647l-.066.183.322-.814.405.776c.355.691.63 1.184.916 1.669l-.089-.163c.372.636.662 1.097.961 1.551l-.085-.138.486.75zm-2.874-1.344c.397.095.808.183 1.23.263a23.437 23.437 0 0 1-.762-1.288l-.077-.151c-.141.394-.271.786-.391 1.175zm16.121.347-.117-.404a28.902 28.902 0 0 0-1.493-4.017l.076.183-.074-.164.074-.163a27.317 27.317 0 0 0 1.365-3.625l.054-.209.117-.404.398.137c3.166 1.089 5.057 2.683 5.057 4.264s-1.89 3.175-5.058 4.265l-.398.137zM24.212 16c.412.89.841 2.006 1.204 3.151l.059.217c2.519-.936 4.125-2.238 4.125-3.367s-1.606-2.431-4.125-3.367a29.727 29.727 0 0 1-1.341 3.559l.078-.192zM7.054 20.401l-.398-.137C3.49 19.174 1.6 17.581 1.6 16s1.89-3.174 5.056-4.264l.398-.137.117.404a28.902 28.902 0 0 0 1.493 4.017l-.076-.184.074.163-.074.163a27.197 27.197 0 0 0-1.364 3.626l-.054.208-.118.404zm-.53-7.768C4.005 13.57 2.4 14.871 2.4 16s1.605 2.43 4.124 3.367c.337-1.1.76-2.23 1.262-3.367a27.59 27.59 0 0 1-1.204-3.152l-.059-.215zm2.578 2.414-.322-.814a23.636 23.636 0 0 1-.795-2.269l-.05-.195-.114-.394.398-.103c.674-.185 1.55-.371 2.442-.512l.152-.02.885-.138-.488.751c-.298.46-.592.929-.876 1.413-.199.324-.474.817-.737 1.317l-.091.189-.404.775zm-.279-3.102c.119.39.25.782.391 1.175a33.921 33.921 0 0 1 .839-1.438c-.422.079-.833.168-1.23.263zm14.073 3.102-.405-.775a32.212 32.212 0 0 0-.918-1.672l.09.165a32.627 32.627 0 0 0-.961-1.551l.085.138-.486-.75.883.138c.91.142 1.783.321 2.594.533l.398.103-.114.395a26.243 26.243 0 0 1-.912 2.649l.066-.185-.321.812zm-.952-3.366c.214.332.492.802.759 1.281l.081.159c.141-.393.272-.786.392-1.176-.398-.096-.81-.184-1.232-.264zm2.428-1.075-.406-.106a26.878 26.878 0 0 0-3.983-.729l-.127-.011-.174-.019-.104-.141a29.593 29.593 0 0 0-2.719-3.194l.004.004-.299-.303.321-.28c2.583-2.249 4.994-3.135 6.422-2.321.604.345 1.032.974 1.273 1.87.326 1.222.284 2.888-.122 4.818l-.086.41zm-4.254-1.623a29.81 29.81 0 0 1 3.639.638c.414-1.526.472-2.876.05-4.038-.242-.664-.483-1.148-.895-1.383-1.038-.592-3.05.189-5.178 1.955a30.668 30.668 0 0 1 2.327 2.749l.057.079zM7.627 10.606l-.086-.41c-.406-1.93-.449-3.596-.122-4.818.241-.898.669-1.529 1.273-1.873 1.431-.816 3.841.073 6.424 2.323l.322.28-.3.303a29.535 29.535 0 0 0-2.661 3.111l-.056.079-.104.141-.174.019a28.723 28.723 0 0 0-4.11.74l-.406.105zM9.92 4c-.321 0-.601.066-.833.199-.411.234-.619.733-.895 1.385-.432 1.02-.359 2.409.05 4.038a27.595 27.595 0 0 1 3.5-.625l.139-.013a30.578 30.578 0 0 1 2.397-2.839l-.011.012c-1.655-1.374-3.226-2.156-4.348-2.156zm3.447 5.631.559-.693a26.966 26.966 0 0 1 1.79-2.006L16 6.644l.284.288c.622.63 1.223 1.304 1.789 2.005l.558.693-.888-.042a39.596 39.596 0 0 0-3.573.003l.086-.003-.888.042zM16 8.746c.296 0 .59.004.881.011-.306-.354-.594-.67-.889-.978l.009.009c-.287.299-.574.614-.854.937l-.027.032c.291-.007.584-.011.88-.011z" style="fill:var(--color14, #4788c7)"/>
    </symbol>
    <symbol id="icon-sass" viewBox="0 0 32 32">
      <path fill="#f06292" d="M26.578 17.304c-.968 0-1.882.229-2.692.634l.035-.016c-.272-.543-.548-1.021-.594-1.377-.054-.415-.117-.663-.051-1.157s.351-1.194.347-1.247c-.004-.053-.064-.304-.655-.309s-1.097.114-1.157.27-.173.507-.244.874c-.103.536-1.181 2.449-1.792 3.449-.2-.391-.37-.735-.405-1.007-.054-.415-.117-.663-.051-1.157s.351-1.194.347-1.247c-.004-.053-.064-.304-.655-.309s-1.097.114-1.157.27-.123.521-.244.874-1.553 3.543-1.928 4.37c-.191.421-.357.76-.475.991l-.001-.001-.019.041c-.101.197-.16.305-.16.305l.002.004c-.08.145-.165.279-.207.279-.029 0-.089-.385.013-.913.213-1.107.725-2.832.72-2.892-.003-.031.095-.331-.334-.489-.417-.153-.566.102-.604.103-.037.001-.064.09-.064.09s.465-1.941-.887-1.941c-.845 0-2.016.925-2.593 1.763-.364.199-1.143.624-1.969 1.078l-.949.522-.063-.069c-1.639-1.749-4.669-2.985-4.541-5.337.047-.855.344-3.105 5.822-5.835 4.487-2.236 8.08-1.621 8.701-.257.887 1.949-1.92 5.569-6.58 6.092-1.775.199-2.711-.489-2.943-.745-.245-.27-.281-.282-.373-.231-.149.083-.055.321 0 .463.139.362.71 1.004 1.683 1.324.857.281 2.941.435 5.462-.54 2.824-1.092 5.029-4.131 4.381-6.67-.659-2.583-4.941-3.432-8.995-1.992-2.415.857-5.027 2.203-6.905 3.959-2.233 2.088-2.589 3.906-2.442 4.665.521 2.699 4.241 4.456 5.73 5.758l-.205.113c-.747.369-3.582 1.853-4.291 3.421-.805 1.778.128 3.054.745 3.226 1.913.532 3.875-.425 4.931-1.999s.926-3.621.442-4.556l-.019-.035.584-.345c.38-.223.753-.431 1.077-.607-.181.496-.314 1.091-.383 1.951-.081 1.009.333 2.314.874 2.827.239.226.525.231.707.231.63 0 .917-.524 1.234-1.144.388-.76.733-1.645.733-1.645s-.432 2.391.745 2.391c.429 0 .861-.557 1.053-.84l.001.005.033-.055c.045-.068.07-.111.07-.111l.002-.013c.27-.451.646-1.141 1.005-1.841l.124-.267c.741-1.455 1.452-3.277 1.452-3.277s.066.445.283 1.183c.127.433.398.913.612 1.373-.172.239-.277.375-.277.375l.003.007c-.137.183-.291.379-.453.571-.585.697-1.282 1.493-1.375 1.722-.11.271-.084.469.129.63.155.117.431.135.72.116.394-.022.761-.11 1.099-.253l-.021.008c.354-.127.66-.291.937-.494l-.01.007c.574-.422.92-1.025.887-1.825-.019-.441-.159-.877-.337-1.289l.157-.227c.905-1.323 1.607-2.776 1.607-2.776s.066.445.283 1.183c.109.373.326.78.521 1.179-.851.691-1.378 1.495-1.561 2.021-.339.975-.073 1.416.424 1.517.225.045.544-.058.783-.159.378-.128.706-.3 1.001-.516l-.01.007c.574-.422 1.126-1.013 1.093-1.812a3.392 3.392 0 0 0-.248-1.072c.721-.301 1.655-.467 2.844-.329 2.551.298 3.051 1.891 2.956 2.557s-.631 1.033-.81 1.144c-.179.111-.233.149-.219.231.022.119.105.115.257.089.21-.035 1.339-.542 1.388-1.773.061-1.564-1.436-3.28-4.087-3.266zM6.913 23.933c-.845.922-2.025 1.27-2.532.977-.547-.317-.33-1.674.707-2.653.632-.596 1.448-1.145 1.989-1.483l.524-.315.057-.032-.001-.001.131-.079c.378 1.393.012 2.619-.875 3.586zm6.157-4.184c-.294.717-.91 2.553-1.285 2.455-.322-.085-.518-1.48-.064-2.853.228-.691.716-1.517 1.003-1.838.461-.516.969-.685 1.093-.475.157.267-.561 2.262-.746 2.712zm5.086 2.426c-.125.065-.239.106-.292.075-.039-.023.051-.109.051-.109s.636-.685.887-.996c.146-.181.315-.397.499-.637l.002.071c-.001.82-.793 1.373-1.147 1.596zm3.918-.893c-.093-.066-.077-.28.229-.947a3.58 3.58 0 0 1 .871-1.124c.055.173.089.339.088.494-.006 1.032-.742 1.417-1.187 1.577z" style="fill:var(--color15, #f06292)"/>
    </symbol>
    <symbol id="icon-telegram" viewBox="0 0 32 32">
      <path  d="M16 2.667C8.636 2.667 2.667 8.637 2.667 16S8.637 29.333 16 29.333c7.364 0 13.333-5.97 13.333-13.333S23.363 2.667 16 2.667z"/>
      <path  d="m22.633 10-2.497 12.751s-.107.583-.83.583c-.384 0-.582-.183-.582-.183l-5.409-4.489-2.647-1.334-3.397-.903s-.605-.175-.605-.675c0-.417.622-.615.622-.615L21.499 9.49c-.001-.001.434-.157.751-.156.195 0 .417.083.417.333 0 .167-.033.333-.033.333z" style="fill:#1b1b1b"/>
      <path  d="m15.333 20.337-2.284 2.249s-.099.077-.232.08h-.011a.33.33 0 0 1-.137-.03l.002.001.643-3.977 2.019 1.676z"/>
      <path  d="M19.931 12.131a.333.333 0 0 0-.468-.062l.001-.001-8.797 5.265s1.404 3.928 1.618 4.608c.215.681.387.697.387.697l.643-3.977 6.555-6.064a.332.332 0 0 0 .062-.468l.001.001z"/>
    </symbol>
    <symbol id="icon-twitter" viewBox="0 0 32 32">
      <path fill="#03a9f4" d="M16 2.667C8.636 2.667 2.667 8.637 2.667 16S8.637 29.333 16 29.333c7.364 0 13.333-5.97 13.333-13.333S23.363 2.667 16 2.667z" style="fill:var(--color19, #03a9f4)"/>
      <path fill="#fff" d="M24 11.413c-.588.261-1.333.505-2 .587.679-.403 1.755-1.241 2-2-.634.373-1.781.771-2.529.915-.597-.633-1.449-.915-2.393-.915C17.265 10 16 11.537 16 13.333v1.333c-2.667 0-5.267-2.031-6.885-4a3.178 3.178 0 0 0-.445 1.63v.009c0 1.213 1.114 2.443 1.996 3.029-.538-.017-1.557-.427-2-.667v.038c0 1.578 1.107 2.649 2.608 2.948-.274.075-.608.347-1.893.347.417 1.29 2.515 1.972 3.952 2-1.124.871-3.128 1.333-4.667 1.333-.266 0-.41.015-.667-.015 1.452.92 3.48 1.349 5.333 1.349 6.038 0 9.333-4.612 9.333-8.913 0-.141-.005-.615-.012-.753.645-.455.907-.931 1.345-1.587z" style="fill:var(--color3, #fff)"/>
    </symbol>
    <symbol id="icon-viber" viewBox="0 0 32 32">
      <path fill="#fff" d="M16 3.333c-1.759 0-7.113 0-10.073 2.703C4.164 7.792 3.334 10.329 3.334 14v2c0 3.671.831 6.208 2.614 7.984.888.81 2.099 1.457 3.579 1.905l.474.143v3.552c0 .417.121.417.161.417.082 0 .213-.026.463-.247.06-.059.5-.535 2.64-2.933l.216-.242.323.021a35.23 35.23 0 0 0 2.197.068c1.759 0 7.113 0 10.073-2.703 1.762-1.756 2.593-4.293 2.593-7.963v-2c0-3.671-.831-6.208-2.614-7.984C23.114 3.335 17.76 3.335 16 3.335z" style="fill:var(--color3, #fff)"/>
      <path fill="#7e57c2" d="M22.301 19.236c-.741-.624-1.083-.813-2.105-1.427-.426-.255-1.075-.476-1.416-.476-.233 0-.511.178-.682.349-.437.437-.581.985-1.347.985-.75 0-2.06-.763-3-1.75-.987-.94-1.75-2.25-1.75-3 0-.767.537-.92.975-1.358.171-.17.359-.449.359-.681 0-.341-.221-.98-.476-1.406-.614-1.023-.802-1.365-1.427-2.105-.211-.251-.452-.365-.704-.366-.426-.001-.985.211-1.364.493-.569.425-1.165 1.003-1.324 1.723-.02.087-.034.188-.038.292v.004c-.031.75.264 1.511.582 2.156.749 1.519 1.739 2.99 2.817 4.303.345.42.72.811 1.109 1.188.372.387.759.75 1.165 1.09l.023.018c1.313 1.078 2.784 2.069 4.303 2.817.639.315 1.391.604 2.133.583.114-.003.224-.017.329-.041l-.012.002c.72-.159 1.298-.755 1.723-1.324.282-.379.493-.937.493-1.364-.001-.252-.115-.493-.366-.704zM22.667 16a.667.667 0 0 1-.667-.667v-.667c0-3.308-2.692-6-6-6a.667.667 0 1 1 0-1.334c4.043 0 7.333 3.29 7.333 7.333v.667a.667.667 0 0 1-.667.667zm-4.095-1.333a.668.668 0 0 1-.644-.494l-.001-.005a2 2 0 0 0-1.413-1.425l-.014-.003a.667.667 0 1 1 .339-1.291l-.005-.001a3.342 3.342 0 0 1 2.378 2.359l.005.023a.667.667 0 0 1-.645.836z" style="fill:var(--color20, #7e57c2)"/>
      <path fill="#7e57c2" d="M20.667 15.333a.667.667 0 0 1-.667-.667v-.001a3.995 3.995 0 0 0-3.775-3.989h-.01a.668.668 0 1 1 .072-1.331h-.002a5.332 5.332 0 0 1 5.049 5.321v.001a.667.667 0 0 1-.667.667z" style="fill:var(--color20, #7e57c2)"/>
      <path fill="#7e57c2" d="M16 2.667c-3 0-7.675.276-10.523 2.877C3.464 7.549 2.666 10.361 2.666 14c0 .301-.001.637.001 1-.003.362-.001.698-.001.999 0 3.639.797 6.451 2.811 8.456 1.084.99 2.436 1.641 3.856 2.071v3.057c0 1.064.699 1.083.827 1.083h.006c.329-.001.614-.163.899-.416.107-.095 1.347-1.477 2.695-2.987.803.051 1.565.07 2.239.07 3 0 7.674-.277 10.523-2.878 2.013-2.004 2.811-4.817 2.811-8.456 0-.301.001-.637-.001-1 .003-.363.001-.698.001-1 0-3.639-.797-6.451-2.811-8.456C23.674 2.942 19 2.666 16 2.666zm11.333 13.1v.232c0 3.271-.697 5.499-2.191 7.008-2.588 2.326-7.518 2.326-9.143 2.326-.495 0-1.297-.001-2.245-.067-.263.296-3.088 3.455-3.088 3.455v-3.909c-1.403-.337-2.789-.889-3.809-1.805-1.494-1.509-2.191-3.738-2.191-7.009v-.232c0-.234-.001-.487.001-.782a63.867 63.867 0 0 1-.001-.753v-.232c0-3.271.697-5.499 2.191-7.008C9.444 4.665 14.375 4.665 16 4.665s6.555 0 9.142 2.326c1.495 1.509 2.191 3.737 2.191 7.008v.232c0 .234.001.487-.001.782.002.267.002.519.002.753z" style="fill:var(--color20, #7e57c2)"/>
    </symbol>
    <symbol id="icon-messenger" viewBox="0 0 32 32">
      <path d="M0 15.52C0 6.6 6.987 0 16 0s16 6.6 16 15.52-6.987 15.52-16 15.52a17.47 17.47 0 0 1-4.627-.613 1.285 1.285 0 0 0-.862.07l.008-.003-3.187 1.4a1.28 1.28 0 0 1-1.8-1.131v-.002l-.093-2.853a1.293 1.293 0 0 0-.426-.906l-.001-.001C1.927 24.21-.003 20.193-.003 15.724l.001-.214v.011zm11.093-2.92L6.4 20.067c-.467.707.427 1.52 1.093 1l5.053-3.827a.94.94 0 0 1 1.16 0l3.733 2.8c1.12.84 2.72.533 3.467-.64l4.693-7.467c.467-.707-.427-1.507-1.093-1l-5.053 3.827a.921.921 0 0 1-1.147 0l-3.733-2.8a2.4 2.4 0 0 0-3.475.63l-.006.01z"/>
    </symbol>
    <symbol id="icon-gmail" viewBox="0 0 32 32">
      <path d="M32 6v20c0 1.133-.867 2-2 2h-2V9.849l-12 8.617L4 9.849V28H2c-1.135 0-2-.867-2-2V6c0-.567.216-1.067.575-1.424A1.98 1.98 0 0 1 2 4h.667L16 13.667 29.333 4H30c.567 0 1.067.216 1.425.576.36.357.575.857.575 1.424z"/>
    </symbol>
    <symbol id="icon-vsc" viewBox="0 0 32 32">
      <path fill="#007acc" d="M30.867 3.449 24.28.28a1.984 1.984 0 0 0-2.273.387L9.394 12.174 3.901 8.003a1.323 1.323 0 0 0-.805-.271c-.346 0-.661.132-.897.348L.437 9.682c-.269.245-.436.596-.436.987s.167.741.434.984l.001.001L5.2 16.001.436 20.348a1.33 1.33 0 0 0 0 1.971l.001.001 1.764 1.601a1.328 1.328 0 0 0 1.704.074l-.003.002 5.493-4.171 12.613 11.507a1.982 1.982 0 0 0 2.284.381l-.012.005 6.589-3.169A2.003 2.003 0 0 0 32 26.749V5.252c0-.789-.457-1.472-1.122-1.797l-.012-.005zm-6.862 19.815L14.434 16l9.571-7.264z" style="fill:var(--color1, #007acc)"/>
    </symbol>
  </defs>
</svg>
